<svg version="1.0" xmlns="http://www.w3.org/2000/svg" preserveAspectRatio="xMidYMid meet" viewBox="57.35 376.54 901.57 277.46">  <g transform="translate(0.000000,1024.000000) scale(0.100000,-0.100000)" fill="#2196f3" stroke="none"> <path d="M1683 6469 c-434 -53 -790 -347 -977 -808 -99 -243 -150 -577 -127 -823 22 -230 90 -397 210 -519 122 -122 234 -165 431 -163 178 1 306 50 425 162 45 43 46 43 39 15 -22 -99 -110 -231 -184 -278 -97 -61 -250 -76 -402 -40 l-78 19 -24 -23 c-73 -69 -17 -206 107 -265 72 -33 142 -46 251 -46 352 0 604 239 716 679 18 72 190 905 190 922 0 9 -701 2 -710 -8 -9 -9 -40 -215 -40 -263 l0 -31 145 3 c130 3 145 1 145 -14 0 -30 -60 -200 -92 -261 -48 -89 -109 -151 -186 -189 -61 -30 -75 -33 -158 -33 -81 0 -97 3 -149 30 -149 76 -215 245 -201 515 8 154 32 282 85 438 72 217 167 379 292 497 83 79 162 124 261 150 103 27 216 8 277 -48 79 -73 80 -236 1 -345 -16 -23 -30 -46 -30 -50 0 -5 11 -19 25 -32 30 -28 117 -38 181 -21 218 59 326 388 198 606 -32 56 -113 129 -177 161 -105 54 -299 81 -444 63z"></path> <path d="M4387 6449 c-264 -19 -449 -157 -542 -402 -69 -185 -89 -420 -82 -1002 5 -461 13 -550 68 -720 37 -117 89 -204 166 -275 71 -66 137 -102 243 -129 97 -26 333 -23 420 4 128 40 227 112 293 213 74 114 107 240 107 413 l0 99 -175 0 -175 0 0 -68 c0 -146 -45 -258 -127 -316 -36 -25 -54 -30 -120 -34 -66 -4 -86 -1 -125 18 -90 42 -144 125 -176 270 -25 112 -24 1098 1 1242 46 263 161 375 351 340 138 -26 196 -129 196 -349 l0 -103 176 0 177 0 -6 163 c-8 228 -37 331 -128 453 -70 94 -208 166 -344 179 -33 4 -69 7 -80 9 -11 1 -64 -1 -118 -5z"></path> <path d="M5270 5185 l0 -1255 185 0 185 0 2 503 3 502 91 3 c65 2 94 -1 101 -10 6 -7 36 -87 67 -178 32 -91 89 -255 127 -365 39 -110 90 -257 116 -327 l45 -128 194 0 c107 0 194 1 194 3 0 2 -51 143 -114 313 -179 489 -266 730 -266 740 0 6 19 19 43 31 184 89 280 280 294 578 13 299 -44 514 -173 654 -148 160 -277 191 -811 191 l-283 0 0 -1255z m740 879 c64 -37 112 -100 138 -183 13 -44 17 -92 17 -221 0 -149 -3 -171 -24 -225 -29 -75 -98 -145 -167 -170 -35 -13 -89 -19 -191 -23 l-143 -4 0 432 0 432 158 -3 c154 -4 158 -5 212 -35z"></path> <path d="M6707 6433 c-11 -10 -6 -1857 4 -1948 22 -187 76 -314 179 -417 118 -119 263 -168 487 -168 147 0 235 18 339 70 147 72 248 209 291 395 17 75 18 144 18 1075 l0 995 -187 3 -188 3 0 -943 c0 -563 -4 -970 -10 -1011 -12 -85 -47 -155 -100 -199 -47 -41 -97 -58 -172 -58 -76 0 -135 23 -185 72 -52 51 -81 116 -93 210 -5 41 -10 480 -10 1001 l0 927 -183 0 c-101 0 -187 -3 -190 -7z"></path> <path d="M8258 6434 c-5 -4 -8 -569 -8 -1256 l0 -1248 338 0 c368 0 465 9 583 56 214 83 337 257 395 554 25 127 32 963 10 1152 -51 438 -206 648 -534 724 -51 12 -153 17 -422 21 -195 3 -358 2 -362 -3z m677 -349 c150 -39 231 -162 255 -385 13 -126 13 -953 0 -1058 -36 -288 -157 -392 -454 -392 l-106 0 0 925 0 925 123 0 c78 0 145 -6 182 -15z"></path> <path d="M2825 5871 c-284 -46 -426 -168 -342 -292 71 -106 396 -177 686 -151 316 29 493 130 451 257 -22 66 -101 117 -247 161 -80 24 -106 26 -293 29 -113 2 -227 0 -255 -4z"></path> <path d="M2460 5261 c0 -137 0 -140 27 -172 80 -94 354 -158 623 -145 280 14 493 95 514 197 9 48 7 247 -3 253 -5 4 -45 -12 -88 -33 -145 -73 -345 -108 -567 -98 -190 9 -343 47 -448 114 -21 12 -42 23 -48 23 -6 0 -10 -51 -10 -139z"></path> <path d="M2460 4786 c0 -141 1 -145 26 -176 149 -176 803 -201 1056 -41 75 48 82 65 86 218 5 153 7 150 -79 103 -269 -148 -774 -145 -1026 7 -30 18 -57 33 -59 33 -2 0 -4 -65 -4 -144z"></path> <path d="M2460 4312 c0 -128 2 -142 23 -173 13 -19 48 -48 82 -66 247 -135 678 -138 935 -8 87 44 112 72 121 138 11 75 11 237 0 237 -5 0 -45 -18 -88 -39 -106 -53 -193 -78 -330 -96 -142 -19 -210 -19 -338 0 -157 23 -281 64 -372 125 l-33 22 0 -140z"></path> </g> </svg>